<svg width="18" height="17" viewBox="0 0 18 17" fill="none" xmlns="http://www.w3.org/2000/svg">
<path fill-rule="evenodd" clip-rule="evenodd" d="M2.80431 0.961548C2.08423 0.961548 1.5 1.5556 1.5 2.28688V3.06692C1.5 3.60861 1.70599 4.12953 2.07446 4.52135L6.11258 8.81515L6.11436 8.81244C6.89393 9.61053 7.33254 10.6894 7.33254 11.8143V15.6242C7.33254 15.8788 7.59891 16.0413 7.82 15.9212L10.1196 14.6681C10.4668 14.4785 10.6834 14.1102 10.6834 13.7102V11.8044C10.6834 10.6858 11.1158 9.61144 11.8883 8.81515L15.9264 4.52135C16.294 4.12953 16.5 3.60861 16.5 3.06692V2.28688C16.5 1.5556 15.9167 0.961548 15.1966 0.961548H2.80431Z" stroke="#130F26" stroke-width="1.5" stroke-linecap="round" stroke-linejoin="round"/>
</svg>
