<svg width="49" height="50" viewBox="0 0 49 50" fill="none" xmlns="http://www.w3.org/2000/svg">
<g opacity="0.3">
<path fill-rule="evenodd" clip-rule="evenodd" d="M43.1872 23.9836C44.8737 23.9836 46.2892 25.3755 46.0314 27.041C44.5185 36.8392 36.1305 44.1142 26.014 44.1142C14.8212 44.1142 5.74921 35.0422 5.74921 23.8521C5.74921 14.6327 12.7532 6.04479 20.6386 4.10304C22.333 3.68469 24.0696 4.87658 24.0696 6.621C24.0696 18.4399 24.4669 21.4973 26.7112 23.1601C28.9555 24.823 31.5945 23.9836 43.1872 23.9836Z" stroke="white" stroke-width="2.81199" stroke-linecap="round" stroke-linejoin="round"/>
<path fill-rule="evenodd" clip-rule="evenodd" d="M54.2217 14.1415C54.3559 6.54813 45.0287 -5.69176 33.6623 -5.48127C32.7783 -5.46548 32.0705 -4.72877 32.031 -3.84735C31.7442 2.39625 32.131 10.4869 32.3468 14.1546C32.4125 15.2965 33.3097 16.1938 34.449 16.2595C38.2194 16.4753 46.6047 16.77 52.7588 15.8386C53.5955 15.7123 54.2086 14.9861 54.2217 14.1415Z" stroke="white" stroke-width="2.81199" stroke-linecap="round" stroke-linejoin="round"/>
</g>
</svg>
