<svg width="29" height="29" viewBox="0 0 29 29" fill="none" xmlns="http://www.w3.org/2000/svg">
<path fill-rule="evenodd" clip-rule="evenodd" d="M21.5372 16.9804C22.4368 16.9804 23.1919 17.7229 23.0544 18.6113C22.2474 23.838 17.773 27.7187 12.3765 27.7187C6.40596 27.7187 1.56667 22.8794 1.56667 16.9103C1.56667 11.9924 5.30281 7.41131 9.50912 6.37553C10.413 6.15237 11.3393 6.78816 11.3393 7.71868C11.3393 14.0232 11.5512 15.6541 12.7484 16.5411C13.9456 17.4282 15.3533 16.9804 21.5372 16.9804Z" stroke="white" stroke-width="1.5" stroke-linecap="round" stroke-linejoin="round"/>
<path fill-rule="evenodd" clip-rule="evenodd" d="M27.4234 11.7303C27.4949 7.67981 22.5195 1.15068 16.4563 1.26296C15.9848 1.27139 15.6072 1.66437 15.5862 2.13454C15.4332 5.46507 15.6395 9.78086 15.7546 11.7374C15.7897 12.3465 16.2683 12.8251 16.876 12.8602C18.8872 12.9752 23.3602 13.1324 26.643 12.6356C27.0893 12.5682 27.4163 12.1809 27.4234 11.7303Z" stroke="white" stroke-width="1.5" stroke-linecap="round" stroke-linejoin="round"/>
</svg>
