<svg width="14" height="9" viewBox="0 0 14 9" fill="none" xmlns="http://www.w3.org/2000/svg">
<path d="M0.666282 8.28785C0.942564 8.56413 1.39056 8.56394 1.66661 8.28743L4.45955 5.48984C4.84998 5.09876 5.4836 5.0985 5.87435 5.48925L7.0835 6.69839C7.49031 7.10521 8.15565 7.0857 8.53793 6.65575L13.0842 1.54258C13.3177 1.27996 13.306 0.880849 13.0575 0.632365C12.7875 0.36244 12.3461 0.375326 12.0924 0.660538L8.53795 4.65614C8.15563 5.08591 7.49043 5.10533 7.08369 4.69859L5.87424 3.48913C5.48353 3.09842 4.85 3.09863 4.45955 3.4896L0.665948 7.28826C0.390143 7.56444 0.390292 8.01186 0.666282 8.28785Z" fill="#49B97D"/>
</svg>
